# xmcd
#
# Track frame offsets: 
#        150
#        21275
#        34687
#        58685
#        78255
#        98692
#        119017
#        139125
#        168997
#        192815
#        214295
#        237165
#        266430
#        284937
#
# Disc length: 3941 seconds
#
# Revision: 0
# Processed by: cddbd v1.4PL0 Copyright (c) Steve Scherf et al.
# Submitted via: ExactAudioCopy v0.90b4
#
DISCID=cc0f630e
DTITLE=Gil - Best Of Gill 1991-2001
DYEAR=2001
DGENRE=Cape Verde
TTITLE0=Obrigado
TTITLE1=Dor (2001 Remix)
TTITLE2=Jantar
TTITLE3=Bye bye my love
TTITLE4=Maria Julia
TTITLE5=Nos Lider
TTITLE6=Menina
TTITLE7=Moda bitchu
TTITLE8=Verdadi
TTITLE9=Flan
TTITLE10=Nha namorada
TTITLE11=Si bu dan
TTITLE12=She's so hot
TTITLE13=Dor
EXTD=
EXTT0=
EXTT1=
EXTT2=
EXTT3=
EXTT4=
EXTT5=
EXTT6=
EXTT7=
EXTT8=
EXTT9=
EXTT10=
EXTT11=
EXTT12=
EXTT13=
PLAYORDER=
